<?xml version="1.0" encoding="UTF-8"?> <!-- Generator: Adobe Illustrator 23.0.2, SVG Export Plug-In . SVG Version: 6.00 Build 0) --> <svg xmlns="http://www.w3.org/2000/svg" xmlns:xlink="http://www.w3.org/1999/xlink" id="Layer_1" x="0px" y="0px" viewBox="0 0 185.5 57.88" xml:space="preserve"> <g> <path d="M46.42,20.93c-5.5,0-10,4.5-10,10c0,5.5,4.5,10,10,10s10-4.5,10-10C56.42,25.43,51.92,20.93,46.42,20.93z M46.42,35.12 c-2.31,0-4.19-1.88-4.19-4.19c0-2.31,1.88-4.19,4.19-4.19s4.19,1.88,4.19,4.19C50.61,33.24,48.74,35.12,46.42,35.12z M68.47,20.93 L68.47,20.93c-1.51,0-2.93,0.35-4.22,0.95v-4.81h-6.38v23.86h6.38v-0.95c1.28,0.6,2.71,0.95,4.22,0.95h0c5.5,0,10-4.5,10-10 C78.47,25.43,73.97,20.93,68.47,20.93z M68.47,35.12c-2.31,0-4.19-1.88-4.19-4.19c0-2.31,1.88-4.19,4.19-4.19 c2.31,0,4.19,1.88,4.19,4.19C72.66,33.24,70.78,35.12,68.47,35.12z M108.82,30.52v10.46h-6.38v-0.99c0,0-0.01,0-0.01,0.01v-9.07 c0-2.31-1.92-4.19-4.31-4.19c-2.32,0-4.19,1.78-4.29,4.01v10.17h-6.38v-20h6.38v0.93c1.3-0.59,2.76-0.93,4.29-0.93 c5.52,0,10.44,4.27,10.67,9.59H108.82z M79.63,25.01h6.38v15.92h-6.38V25.01z M79.63,20.23c0-1.74,1.41-3.15,3.15-3.15 c1.74,0,3.15,1.41,3.15,3.15c0,1.74-1.41,3.15-3.15,3.15C81.04,23.38,79.63,21.97,79.63,20.23z"></path> <path fill="#F70708" d="M154.85,26.74v0.25c0,0.47,0.08,0.94,0.23,1.41c0.06,0.19,0.13,0.38,0.22,0.57 c1.05,2.27,3.81,3.86,7.05,4.04c0.08,0,0.17,0,0.24,0.01h0.01c1.08,0.1,1.88,0.75,1.88,1.55c0,0.85-0.96,1.55-2.13,1.55h-7.49v4.6 h7.67c4.45,0,8.09-2.7,8.09-6.02v-0.26c0-0.47-0.08-0.94-0.23-1.41l-0.22-0.56c-1.05-2.28-3.81-3.87-7.06-4.04 c-0.08,0-0.15-0.01-0.24-0.02c-1.08-0.08-1.89-0.74-1.89-1.54c0-0.86,0.95-1.56,2.13-1.56h7.51v-4.6h-7.67 C158.48,20.71,154.85,23.41,154.85,26.74z"></path> <path fill="#F70708" d="M142.74,20.93L142.74,20.93c-5.5,0-10,4.5-10,10c0,5.5,4.5,10,10,10h0c5.5,0,10-4.5,10-10 C152.74,25.43,148.24,20.93,142.74,20.93z M142.74,35.12c-2.31,0-4.19-1.88-4.19-4.19c0-2.31,1.88-4.19,4.19-4.19 c2.31,0,4.19,1.88,4.19,4.19C146.92,33.24,145.05,35.12,142.74,35.12z"></path> <path fill="#F70708" d="M22.77,16.95c-1.21,0.83-2.01,2.22-2.01,3.8c0,2.54,2.06,4.61,4.61,4.61c0.22,0,0.44-0.02,0.65-0.05v0.56 c-0.21,0.03-0.43,0.05-0.65,0.05c-2.85,0-5.16-2.31-5.16-5.16c0-1.54,0.68-2.92,1.75-3.86c-0.25-0.01-0.5-0.04-0.76-0.04h-0.24 c-1.01,1.05-1.63,2.48-1.63,4.05c0,3.24,2.62,5.86,5.86,5.86c0.28,0,0.56-0.03,0.83-0.07v0.71c-0.27,0.03-0.55,0.06-0.83,0.06 c-3.63,0-6.57-2.94-6.57-6.57c0-1.53,0.53-2.93,1.4-4.05h-3.98c-7.47,0-13.58,6.11-13.58,13.58v10.45h6.46v-7.24 c0-0.89,0.72-1.6,1.6-1.6h3.26c0.89,0,1.6,0.72,1.6,1.6v7.24h6.46v-10c0-0.89,0.72-1.6,1.6-1.6h3.26c0.89,0,1.6,0.72,1.6,1.6v10 h6.46V30.44C34.78,23.5,29.51,17.74,22.77,16.95z M28.48,24.45c-0.46,0-0.83-0.37-0.83-0.83c0-0.46,0.37-0.83,0.83-0.83 s0.83,0.37,0.83,0.83C29.3,24.08,28.93,24.45,28.48,24.45z"></path> <polygon fill="#F70708" points="179.56,20.71 179.56,16.85 173.18,16.85 173.18,40.71 179.56,40.71 179.56,23.74 183.88,23.74 183.88,20.71 "></polygon> <path fill="#F70708" d="M120.75,20.93c-1.53,0-2.99,0.33-4.29,0.93v-4.93h-6.38v24h6.38V30.76c0.1-2.23,1.97-4.01,4.29-4.01 c2.38,0,4.31,1.87,4.31,4.19V40c0,0,0.01,0,0.01-0.01v0.99h6.38V30.52h-0.02C131.19,25.2,126.27,20.93,120.75,20.93z"></path> </g> </svg> 